<?xml version="1.0" standalone="no"?>
<svg version="1.1" id="Layer_1" xmlns="http://www.w3.org/2000/svg" xmlns:xlink="http://www.w3.org/1999/xlink" x="0px" y="0px" width="595.279px" height="595.279px" viewBox="0 0.001 595.279 595.279" enable-background="new 0 0.001 595.279 595.279" xml:space="preserve">
<path id="color_x5F_5" fill="#ffe8d6" d="M351.945,422.601c-5.256,5.489-16.537,27.781-26.368,48.392
	c-10.7,0.824-20.294,5.513-27.354,12.658c-6.688,6.769-11.105,15.731-12.027,25.694h-45.717c0,0,4.56-16.607,5.641-32.841
	c0.514-7.715,0.247-15.346-1.676-21.068c-5.969-17.763-42.438-44.18-47.892-47.139c-5.453-2.961-31.339-7.779-35.629-10.381
	c-4.291-2.601,2.516-8.137,14.911-13.216c12.396-5.083,39.614,7.79,39.614,7.79s-8.084-8.865-15.585-17.551
	c-7.5-8.688-33.684-26.971-33.547-29.475c0.137-2.506,6.321-10.145,16.34-9.593c10.018,0.552,32.351,18.918,32.351,18.918
	s-12.577-56.101-15.831-64.11c-3.253-8.012,2.516-8.135,2.516-8.135s11.233-5.442,21.588,10.494
	c10.353,15.937,10.653,56.144,16.214,46.402c5.56-9.742-4.05-74.76-4.05-74.76s8.084,0.327,12.194,3.508
	c4.111,3.181,17.806,17.487,17.806,39.749c0,21.838,2,26.342,2,57.138c0,36.36,36.085,43.19,52.38,31.676
	c16.297-11.517,16.152-35.757,8.207-47.125c-7.945-11.374-4.215-25.5,0.848-31.574c5.063-6.075,6.436,3.899,12.277,15.893
	c5.842,11.995,21.119,24.359,21.816,38.583C363.668,386.75,362.291,411.794,351.945,422.601z"></path>
<path id="color_x5F_3" fill="#cb997e" d="M387.228,276.969c5.9-5.179,17.572-14.545,21.977-11.792c6.473,4.045-2.5,8.5-2.5,8.5
	s4.328,0.154,3.801,3.75c-0.577,3.942-5.934,6.166-9.924,7.288c1.041,0.232,2.086,0.372,3.123,0.372c5.09,0,9.82-1.56,13.73-4.23
	c-0.51,12.78-11.051,22.989-23.98,22.989c-11.734,0-21.491-8.404-23.578-19.505l-6.922-3.665c0,0,6.749-2.8,6.813-3.034
	c1.016-3.73,4.415-6.476,8.467-6.476c1.41,0,2.74,0.33,3.921,0.92c1.616,0.811,2.937,2.11,3.793,3.696
	c0.009,0.008,0.017,0.015,0.024,0.023C386.37,276.188,386.794,276.578,387.228,276.969z M156.332,249.008
	c0.51,12.78,11.051,22.989,23.98,22.989c11.734,0,21.491-8.404,23.578-19.505l6.922-3.665c0,0-6.749-2.8-6.813-3.034
	c-1.016-3.73-4.415-6.476-8.467-6.476c-1.41,0-2.74,0.33-3.921,0.92c-1.616,0.811-2.937,2.11-3.793,3.696
	c-0.009,0.008-0.017,0.015-0.024,0.023c-0.397,0.382-0.821,0.771-1.256,1.163c-5.9-5.179-17.572-14.545-21.977-11.792
	c-6.473,4.045,2.5,8.5,2.5,8.5s-4.328,0.154-3.801,3.75c0.577,3.942,5.934,6.166,9.924,7.288c-1.041,0.232-2.086,0.372-3.123,0.372
	C164.972,253.238,160.242,251.677,156.332,249.008z"></path>
<path id="color_x5F_2" fill="#6b705c" d="M132.435,352.895v-8.514c0-1.162,0.94-2.101,2.101-2.101c1.159,0,2.098,0.938,2.098,2.101
	v8.514c0,1.162-0.939,2.101-2.098,2.101C133.375,354.996,132.435,354.057,132.435,352.895z M134.536,385.869
	c1.159,0,2.098-0.94,2.098-2.098v-8.517c0-1.159-0.939-2.1-2.098-2.1c-1.161,0-2.101,0.94-2.101,2.1v8.517
	C132.435,384.928,133.375,385.869,134.536,385.869z M143.613,364.076c0,1.159,0.939,2.098,2.101,2.098h8.517
	c1.159,0,2.101-0.938,2.101-2.098c0-1.161-0.942-2.101-2.101-2.101h-8.517C144.552,361.975,143.613,362.915,143.613,364.076z
	 M114.84,366.174h8.517c1.159,0,2.101-0.938,2.101-2.098c0-1.161-0.942-2.101-2.101-2.101h-8.517c-1.159,0-2.098,0.939-2.098,2.101
	C112.741,365.235,113.681,366.174,114.84,366.174z M142.443,358.272c0.535,0,1.073-0.208,1.483-0.618l6.021-6.021
	c0.821-0.82,0.821-2.149,0-2.972c-0.821-0.817-2.149-0.817-2.968,0l-6.023,6.024c-0.818,0.821-0.818,2.149,0,2.968
	C141.366,358.064,141.904,358.272,142.443,358.272z M125.147,370.495l-6.021,6.021c-0.821,0.82-0.821,2.15,0,2.971
	c0.408,0.411,0.946,0.614,1.484,0.614c0.535,0,1.073-0.203,1.484-0.614l6.021-6.024c0.821-0.817,0.821-2.146,0-2.967
	C127.297,369.675,125.968,369.675,125.147,370.495z M146.979,379.486c0.411,0.411,0.946,0.614,1.484,0.614s1.073-0.203,1.484-0.614
	c0.821-0.82,0.821-2.15,0-2.971l-6.021-6.021c-0.821-0.82-2.15-0.82-2.971,0c-0.818,0.82-0.818,2.149,0,2.967L146.979,379.486z
	 M125.147,357.654c0.41,0.41,0.949,0.618,1.484,0.618c0.538,0,1.076-0.208,1.484-0.618c0.821-0.818,0.821-2.146,0-2.968
	l-6.021-6.024c-0.821-0.817-2.15-0.817-2.968,0c-0.821,0.822-0.821,2.151,0,2.972L125.147,357.654z M420.995,352.971
	c1.149,0,2.084-0.934,2.084-2.087v-8.457c0-1.154-0.935-2.087-2.084-2.087c-1.154,0-2.088,0.933-2.088,2.087v8.457
	C418.907,352.038,419.841,352.971,420.995,352.971z M420.995,383.64c1.149,0,2.084-0.935,2.084-2.084v-8.461
	c0-1.151-0.935-2.085-2.084-2.085c-1.154,0-2.088,0.934-2.088,2.085v8.461C418.907,382.706,419.841,383.64,420.995,383.64z
	 M430.01,361.991c0,1.151,0.934,2.084,2.087,2.084h8.461c1.151,0,2.087-0.933,2.087-2.084c0-1.153-0.936-2.087-2.087-2.087h-8.461
	C430.944,359.904,430.01,360.838,430.01,361.991z M411.974,361.991c0-1.153-0.936-2.087-2.087-2.087h-8.46
	c-1.151,0-2.085,0.934-2.085,2.087c0,1.151,0.934,2.084,2.085,2.084h8.46C411.039,364.075,411.974,363.142,411.974,361.991z
	 M428.848,356.224c0.531,0,1.065-0.205,1.474-0.613l5.981-5.979c0.814-0.816,0.814-2.136,0-2.952c-0.816-0.812-2.136-0.812-2.949,0
	l-5.983,5.984c-0.813,0.815-0.813,2.136,0,2.947C427.778,356.019,428.313,356.224,428.848,356.224z M407.16,377.91
	c0.532,0,1.066-0.202,1.474-0.61l5.981-5.984c0.814-0.812,0.814-2.132,0-2.947c-0.813-0.815-2.133-0.815-2.947,0l-5.981,5.98
	c-0.815,0.815-0.815,2.136,0,2.951C406.091,377.708,406.625,377.91,407.16,377.91z M433.354,377.3c0.408,0.408,0.94,0.61,1.475,0.61
	s1.065-0.202,1.475-0.61c0.814-0.815,0.814-2.136,0-2.951l-5.981-5.98c-0.815-0.815-2.136-0.815-2.951,0
	c-0.813,0.815-0.813,2.136,0,2.947L433.354,377.3z M414.615,352.664l-5.981-5.984c-0.814-0.812-2.135-0.812-2.947,0
	c-0.815,0.816-0.815,2.136,0,2.952l5.981,5.979c0.406,0.408,0.941,0.613,1.474,0.613c0.534,0,1.068-0.205,1.474-0.613
	C415.429,354.8,415.429,353.479,414.615,352.664z"></path>
<path id="color_x5F_1" fill="#b7b7a4" d="M242.25,478.981c1.242-0.892,2.535-1.716,3.87-2.477
	c-1.082,16.233-5.641,32.841-5.641,32.841H77.696c-0.201-1.333-0.337-2.695-0.337-4.084c0-15.286,12.564-27.68,28.057-27.68
	c0.844,0,1.67,0.052,2.49,0.123c-1.58-4.293-2.49-8.906-2.49-13.739c0-22.241,18.277-40.272,40.824-40.272
	c21.339,0,38.83,16.164,40.641,36.751c4.58-10.135,14.857-17.215,26.83-17.215c16.225,0,29.377,12.976,29.377,28.981
	C243.087,474.545,242.779,476.805,242.25,478.981z M293.722,360.892v12.858c0,3.869,6,3.869,6,0v-10.484
	c2.262,0.814,4.432,1.747,6.486,3.075c3.26,2.106,6.266-3.09,3.027-5.182c-3.006-1.943-6.336-3.174-9.715-4.302
	c-0.588-0.196-1.115-0.198-1.582-0.084c-3.256-4.19-6.938-7.978-10.683-11.729c1.621-3.324,3.484-6.564,5.66-9.773h13.01
	c1.715,2.063,3.313,4.198,4.807,6.396c0,0.029-0.01,0.054-0.01,0.084c-0.035,2.149-0.689,4.122-2.514,5.409
	c-1.332,0.941-1.957,2.603-1.076,4.104c0.773,1.32,2.766,2.021,4.104,1.077c1.545-1.091,2.738-2.393,3.627-3.857
	c1.537,2.902,2.871,5.918,3.967,9.064c1.266,3.629,7.063,2.068,5.785-1.596c-3.037-8.719-7.643-16.477-13.393-23.621v-99.457
	c18.494-4.712,28.236-20.975,36.09-37.61c1.643-3.478-3.529-6.525-5.18-3.028c-6.982,14.785-15.064,29.397-30.91,34.375v-25.813
	c4.479-9.095,8.113-19.067,7.5-29.048c-0.236-3.843-6.236-3.866-6,0c0.615,10.014-3.504,19.981-8.146,28.92h-9.586
	c-7.427-8.089-12.858-17.505-12.267-28.92c0.201-3.869-5.801-3.849-6,0c-0.604,11.628,4.345,21.678,11.499,30.276v24.081
	c-17.065-3.655-27.522-20.777-33.606-36.155c-1.405-3.554-7.21-2.007-5.785,1.595c7.167,18.118,19.313,36.898,39.392,40.627v99.359
	c-6.737,9.724-10.843,19.769-13.392,31.418c-0.825,3.771,4.959,5.375,5.785,1.596c1.051-4.806,2.393-9.291,4.068-13.597
	c2.964,2.966,5.905,5.983,8.448,9.313C293.31,360.498,293.511,360.706,293.722,360.892z M336.144,220.58
	c-2.244,6.701-1.016,14.134,3.895,19.371c4.91,5.236,12.25,6.939,19.08,5.132c2.244-6.701,1.014-14.134-3.895-19.37
	C350.314,220.476,342.974,218.772,336.144,220.58z M385.631,214.7c-2.219-6.709-7.654-11.925-14.723-13.176
	s-13.965,1.781-18.352,7.321c2.219,6.709,7.654,11.924,14.723,13.176C374.347,223.272,381.244,220.24,385.631,214.7z
	 M359.279,190.95c5.518,4.414,12.92,5.82,19.525,3.014c6.607-2.806,10.734-9.109,11.391-16.145c-5.52-4.414-12.92-5.82-19.527-3.014
	C364.06,177.612,359.933,183.915,359.279,190.95z M364.351,170.095c2.426-6.755,0.6-14.065-4.119-19.324
	c-6.988,1.055-13.047,5.535-15.471,12.29c-2.426,6.756-0.602,14.065,4.119,19.324C355.869,181.33,361.926,176.851,364.351,170.095z
	 M244.455,225.712c-4.909,5.236-6.139,12.669-3.896,19.37c6.831,1.808,14.17,0.104,19.08-5.132
	c4.91-5.236,6.139-12.669,3.896-19.371C256.704,218.772,249.365,220.476,244.455,225.712z M228.77,201.524
	c-7.067,1.251-12.504,6.466-14.723,13.176c4.387,5.54,11.283,8.572,18.352,7.321c7.068-1.251,12.505-6.466,14.723-13.176
	C242.735,203.305,235.839,200.273,228.77,201.524z M220.874,193.965c6.606,2.806,14.008,1.4,19.526-3.014
	c-0.655-7.036-4.782-13.338-11.39-16.145c-6.606-2.806-14.008-1.399-19.527,3.014C210.139,184.855,214.266,191.159,220.874,193.965z
	 M250.798,182.385c4.721-5.259,6.545-12.568,4.12-19.324c-2.425-6.755-8.483-11.234-15.471-12.29
	c-4.72,5.258-6.546,12.568-4.12,19.324C237.753,176.851,243.809,181.33,250.798,182.385z M298.5,167.562
	c6.143-3.495,10.188-9.851,10.025-17.027c-0.164-7.175-4.492-13.341-10.787-16.554c-6.141,3.494-10.185,9.851-10.023,17.027
	C287.877,158.184,292.205,164.35,298.5,167.562z M338.019,150.313c3.131-6.457,2.096-13.92-2.037-19.652
	c-7.059,0.303-13.561,4.111-16.693,10.569s-2.098,13.92,2.035,19.653C328.385,160.58,334.885,156.772,338.019,150.313z
	 M274.943,160.884c4.135-5.733,5.168-13.195,2.035-19.653s-9.634-10.266-16.693-10.569c-4.133,5.732-5.168,13.195-2.035,19.652
	C261.383,156.772,267.883,160.58,274.943,160.884z M491.031,477.582c-0.844,0-1.67,0.052-2.49,0.123
	c1.58-4.293,2.49-8.906,2.49-13.739c0-22.241-18.277-40.272-40.824-40.272c-21.338,0-38.83,16.164-40.641,36.751
	c-4.58-10.135-14.857-17.215-26.83-17.215c-16.225,0-29.377,12.976-29.377,28.981c0,2.334,0.309,4.595,0.838,6.771
	c-7.092-5.093-15.789-8.13-25.23-8.13c-1.142,0-2.27,0.055-3.39,0.142c-10.7,0.824-20.294,5.513-27.354,12.658
	c-6.688,6.769-11.105,15.731-12.027,25.694h21.696h2.357h208.502c0.201-1.333,0.336-2.695,0.336-4.084
	C519.088,489.975,506.523,477.582,491.031,477.582z"></path>
</svg>