<?xml version="1.0" standalone="no"?>
<svg version="1.1" id="Layer_1" xmlns="http://www.w3.org/2000/svg" xmlns:xlink="http://www.w3.org/1999/xlink" x="0px" y="0px" width="595.279px" height="595.281px" viewBox="0 0 595.279 595.281" enable-background="new 0 0 595.279 595.281" xml:space="preserve">
<path id="color_x5F_2" fill="#d2e1c8" d="M185.666,334.262c-1.456,1.75-2.803,3.617-4.036,5.603l1.141-3.175L185.666,334.262z
	 M171.271,368.69c0,0-0.402,2.045-1.004,5.416c0.523-2.448,1.091-4.885,1.687-7.316L171.271,368.69z M293.952,400.031
	c-0.021,0.196-0.039,0.394-0.061,0.589c2.584-0.19,5.274-1.959,7.587-3.906c-0.71,0.387-1.592,0.867-2.708,1.477
	C296.447,399.457,294.934,399.917,293.952,400.031z M360.14,375.714c-1.534-17.556-9.296-35.419-15.819-50.802
	c-0.002-0.006-0.002-0.011-0.004-0.017c-5.518,3.149-13.097,3.481-19.14,1.559c-0.435,7.811-0.874,15.624-1.089,23.444
	c-0.171,6.218,0.031,12.425-0.813,18.601c-1.281,9.368-5.562,24.086,1.148,32.201c0.994,1.202-1.745,2.4-2.643,1.314
	c-6.615-8-3.089-21.702-1.789-30.914c0.151-1.07,0.285-2.143,0.409-3.218c-0.189-0.055-0.338-0.15-0.413-0.306
	c-1.219-2.525-1.232-4.907-1.553-7.646c-0.651-5.551-1.804-11.036-3.765-16.279c-3.412-9.122-9.283-21.882-19.731-24.383
	c-0.16,3.035-0.604,5.936-1.562,8.504c0.095,0.045,0.179,0.102,0.237,0.179c14.118,18.668,16.141,42.485,13.604,65.059
	c-0.004,0.035-0.019,0.067-0.029,0.102c0.27,0.026,0.396,0.113,0.222,0.284c-0.047,0.046-0.097,0.093-0.146,0.139
	c0.051,0.079,0.094,0.165,0.119,0.266c2.167,8.381,5.565,19.802,13.974,24.065c2.27,0.578,5.622,1.392,8.352,1.887
	c9.353,0.313,19.621-4.191,24.178-12.164c3.578-6.261,5.487-12.834,6.197-19.554C360.257,383.836,360.235,379.592,360.14,375.714z
	 M292.468,401.744c-0.3,0.016-0.482-0.004-0.591-0.042c-0.529-0.011-0.942-0.207-0.892-0.666c1.162-10.457,1.08-21.064-0.76-31.269
	c-0.204-0.946-0.417-1.99-0.633-3.146c-2.22-10.162-6.271-19.856-12.674-28.521c-0.556-0.029-1.171-0.067-1.829-0.118
	c-4.387,0.189-8.876-0.251-12.885-1.667c-6.178-2.183-11.521-5.935-16.92-9.563c-8.019-2.556-22.376-2.201-26.006-11.662
	c-0.774,0.258-1.55,0.51-2.319,0.78c-10.889,3.923-21.953,9.29-29.196,18.666c-8.39,10.862-11.498,25.008-14.35,38.176
	c-2.816,13.003-4.884,26.251-6.089,39.507c-0.304,3.338-0.507,7.064-0.086,10.6c0.257,0.219,0.28,0.58,0.127,0.933
	c0.799,5.214,3.094,9.886,8.651,12.076c6.555,2.584,13.697,1.915,20.576,1.62c8.444-0.361,16.884-0.825,25.325-1.248
	c7.905-0.395,15.815-0.813,23.729-0.983c1.834-0.04,5.273-0.572,8.043-0.354c0.401-0.148,0.809-0.258,1.089-0.268
	c1.56-7.65,2.732-15.266,2.859-23.106c-10.23-3.765-21.053-6.486-31.803-8.058c-4.553-0.666-11.438-1.699-17.769-1.219
	c-0.011,0-0.021,0.002-0.032,0.002c-6.799,0.521-12.952,2.794-14.87,9.176c-0.397,1.323-3.288,1.257-2.789-0.401
	c2.241-7.458,9.547-10.111,17.177-10.808c0.017-0.053,0.029-0.092,0.048-0.154c0.189-0.615,0.368-1.232,0.53-1.854
	c0.419-1.609,0.806-3.227,1.164-4.851c0.994-4.505,1.882-9.036,2.638-13.587c1.301-7.838,3.721-17.596,1.723-25.489
	c-0.28-1.104,2.621-1.869,2.897-0.775c1.149,4.54,0.45,9.719-0.065,14.294c-0.712,6.33-1.731,12.627-2.962,18.875
	c-0.858,4.352-1.63,8.836-3.018,13.06c-0.029,0.087-0.076,0.194-0.131,0.309c3.961-0.133,7.853,0.169,11.014,0.51
	c13.496,1.455,27.187,4.773,39.87,9.648c0.222,0.086,0.38,0.19,0.487,0.309c2.631-0.92,6.268-1.727,9.777-1.856
	c1.298-0.261,2.438-0.427,3.247-0.427c1.078,0,2.117,0.479,3.063,1.169c2.518,0.855,4.373,2.51,4.801,5.347l2.243,0.103
	c9.773-0.873,19.454-1.769,29.019,0.466c-4.759-5.235-7.277-12.696-9.09-19.491C301.276,398.797,296.962,401.52,292.468,401.744z
	 M304.534,393.906c0.01-0.01,0.02-0.02,0.029-0.028c-0.007-0.005-0.016-0.008-0.021-0.012
	C304.539,393.88,304.536,393.892,304.534,393.906z M207.781,400.161c0.572-0.049,1.145-0.089,1.718-0.117
	C208.789,399.192,208.163,399.68,207.781,400.161z M211.474,235.546c-0.047-4.748,0.713-9.479,2.436-14.016
	c-0.229-0.016-0.438-0.077-0.6-0.202c-3.747-2.899-7.066,1.941-7.813,5.375C204.432,231.602,206.948,234.813,211.474,235.546z"></path>
<path id="color_x5F_1" d="M289.654,260.912c-0.17-0.634,0.821-1.009,1.246-1.147c1.113-0.361,2.102-0.506,3.11-0.753
	c-0.759-1.381-1.637-2.696-2.355-4.1c-0.285-0.557,2.493-1.567,2.897-0.776c0.817,1.596,1.85,3.07,2.667,4.667
	c0.109,0.212-0.229,0.49-0.709,0.709c-0.199,0.408-0.87,0.663-1.202,0.77c-1.438,0.468-2.668,0.568-4.001,1.001
	C290.882,261.421,289.815,261.516,289.654,260.912z M299.295,250.606c0.84,0.647,3.482-0.572,2.28-1.499
	c-2.724-2.1-4.703-4.93-6.468-7.843c-0.56-0.923-3.365,0.051-2.678,1.186C294.307,245.547,296.41,248.383,299.295,250.606z
	 M163.484,267.002c1.099-0.216,2.607-1.356,0.569-0.956c-8.065,1.584-15.664-3.383-22.249-7.333
	c-0.687-0.412-3.022,0.786-2.739,0.956C146.574,264.173,154.442,268.779,163.484,267.002z M138.628,271.269
	c0.947,0.417,3.574-0.921,2.282-1.49c-4.403-1.94-8.827-4.837-10.359-9.643c-0.357-1.123-3.245-0.314-2.897,0.776
	C129.282,266.018,133.934,269.2,138.628,271.269z M154.621,339.003c-18.018,14.617-38.908,23.239-62.271,23.427
	c-1,0.008-3.113,1.537-1.16,1.521c24.56-0.195,46.763-9.185,65.729-24.572C158.179,338.355,155.279,338.468,154.621,339.003z
	 M464.9,417.623c-2.758-3.341-2.646-7.997,1.07-10.625c3.163-2.234,7.748-2.668,10.678,0.231c2.972,2.941,2.882,7.341-0.395,10.044
	c-3.061,2.526-7.188,2.733-10.502,0.734C465.411,417.981,465.101,417.865,464.9,417.623z M467.142,415.804
	c0.071,0.029,0.14,0.064,0.202,0.109c2.215,1.584,5.327,2.014,7.288-0.263c1.776-2.062,1.688-4.848-0.272-6.789
	c-1.965-1.943-5.162-2.152-7.101,0.007C465.31,411.042,465.587,413.604,467.142,415.804z M424.552,413.711
	c-0.986-5.455-1.696-11.09-3.063-16.466c-0.032-0.127,0.062-0.258,0.229-0.383c0.157-0.567,1.115-1.311,1.907-1.311
	c31.778,0,63.556,0,95.333,0c0.755,0,0.96,0.29,0.857,0.645c0.036,0.029,0.062,0.063,0.069,0.105
	c0.364,1.837-0.444,4.337-0.732,6.14c-0.546,3.412-1.128,6.818-1.715,10.225c-0.72,4.181-1.462,8.358-2.125,12.55
	c-0.181,1.135-0.938,3.378-0.654,4.656c0.674,0.459-0.684,1.791-1.745,1.791c-27.858-0.004-55.716-0.161-83.574-0.166
	c-0.885,0.257-2.051,0.271-1.928-0.045c0.543-1.398-0.578-4.594-0.811-5.998C425.952,421.534,425.26,417.621,424.552,413.711z
	 M424.631,397.498c1.286,5.38,2.019,10.977,2.993,16.405c0.731,4.071,1.468,8.144,2.11,12.229c0.134,0.851,0.561,2.236,0.653,3.419
	c27.098,0.004,54.193,0.15,81.291,0.163c0.055-1.475,0.685-3.413,0.856-4.465c0.549-3.364,1.13-6.724,1.708-10.082
	c0.729-4.235,1.479-8.47,2.133-12.717c0.226-1.46,0.813-3.393,0.663-4.954C486.236,397.498,455.434,397.498,424.631,397.498z
	 M535.884,370.803c0,5.777,0,11.556,0,17.333c0,0.363-0.624,0.641-1.292,0.797c-0.382,0.317-0.891,0.563-1.346,0.563
	c-0.852,0-1.704-0.004-2.556-0.004c0.224,2.702-0.567,5.933-0.828,8.464c-0.647,6.288-1.361,12.569-2.071,18.852
	c-0.689,6.114-1.397,12.227-2.027,18.348c-0.181,1.766-1.187,5.357-0.744,7.407c1.043-0.114,2.271,0.255,0.973,1.024
	c-9.941,5.888-23.066,6.673-34.289,7.421c-17.08,1.138-34.297,0.516-51.333-0.987c-14.843-1.31-29.991-3.175-44.313-7.438
	c-19.83-5.902-37.889-16.75-58.111-21.552c-5.376,1.341-11.048,1.479-15.781-0.18c-2.068-0.725-3.889-1.749-5.503-3.001
	c-0.285,0.055-0.544,0.066-0.719,0.006c-4.591-1.573-9.212-2.241-13.86-2.423c-0.602-0.023-1.204-0.042-1.806-0.05
	c-4.481-0.06-8.986,0.289-13.51,0.69c4.715,2.887,1.905,12.002-1.566,16.875c-5.847,8.209-18.735,5.722-28.175,3.735
	c-0.498,0.563-1.861,0.958-2.401,0.563c-1.546-1.132-6.04-0.374-7.814-0.346c-16.585,0.26-33.147,1.497-49.716,2.207
	c-11.935,0.511-29.928,1.929-32.543-13.621c-0.03-0.178-0.05-0.357-0.077-0.536c-34.657,4.637-68.654,15.6-103.832,15.799
	c-1.968,0.011-1.397-2.111,0.257-2.121c0.704-0.004,1.406-0.021,2.108-0.032c-1.314-12.246-3.913-24.086-3.214-36.524
	c0.981-17.455,5.755-34.318,6.654-51.829c0.015-0.289,0.309-0.523,0.704-0.695c-0.001-0.001-0.003-0.002-0.005-0.003
	c-0.537,0.092-1.084,0-1.369-0.385c-6.338-8.545-6.821-20.506,2.15-27.562c7.382-5.807,18.132-6.186,24.397,1.579
	c6.191,7.673,6.023,18.578-1.661,25.282c-0.127,0.11-0.261,0.204-0.389,0.312c22.862-0.423,42.941-15.334,62.941-24.734
	c10.971-5.155,22.366-10.593,34.285-13.187c11.148-2.426,22.374-3.834,33.754-4.525c3.167-3.192,8.075-5.576,8.297-10.453
	c-0.875-6.787,2.875-14.015,9.993-15.637c-15.414-8.24-26.952-25.315-27.998-42.569c-1.22-0.079-2.29-0.272-3.236-0.554
	c-7.636,9.663-17.237,19.385-29.46,22.691c-11.756,3.179-25.195,0.428-34.426-7.757c-6.163-5.464-9.038-12.188-9.631-19.293
	c-0.013-0.038-0.022-0.064-0.022-0.064l0.014-0.084c-0.77-9.751,2.742-20.204,7.958-29.097c1.164-3.038,3.003-5.818,5.461-8.007
	c0.347-0.439,0.696-0.875,1.048-1.299c0.269-0.324,0.831-0.506,1.368-0.536c0.79-0.501,1.625-0.949,2.506-1.335
	c1.489-0.651,3.106,0.922,1.286,1.718c-1.605,0.702-3.033,1.61-4.285,2.672c-1.786,2.321-3.521,4.893-5.109,7.642
	c-1.059,3.245-1.19,6.852-0.249,10.436c1.876,7.142,8.081,14.774,16.352,11.786c9.127-3.297,12.666-14.382,22.334-16.724
	c9.334-2.261,19.179,1.627,24.182,9.833c2.164-1.52,4.75-1.96,7.23-0.437c0.868-1.895,1.893-3.753,3.124-5.552
	c14.725-21.528,45.466-26.395,66.869-12.233l2.246,0.473c1.981-0.183,3.958-0.104,5.777,0.311c0.114,0.026,0.229,0.052,0.341,0.081
	c3.377,0.859,6.144,2.951,7.239,6.854c0.378,0,0.845,0,1.393,0c6.705-2.016,11.211,7.83,13.33,13.268
	c2.164,5.557,3.737,11.046,3.06,17.085c-0.662,5.896-4.693,10.643-8.497,14.883c-0.081,0.09-0.231,0.174-0.419,0.25
	c-1.097,4.137-1.8,8.272-0.508,12.389c0.204,0.076,0.352,0.206,0.396,0.404c1.463,6.578,5.698,10.78,2.472,17.688
	c-2.758,5.905-6.53,11.557-12.212,14.994c-1.423,0.861-2.837,1.541-4.235,2.062c1.329,3.954,0.91,6.907-0.588,9.123
	c0.141,0.137,0.235,0.317,0.246,0.557c0.087,1.887,0.136,3.784,0.099,5.648c11.277,1.354,17.991,13.588,21.728,23.134
	c2.215,5.658,3.78,11.476,4.493,17.522c0.629-10.8,0.479-21.729,1.063-32.47c-0.052-0.042-0.097-0.091-0.128-0.15
	c-3.244-6.126-17.406-22.411-4.082-25.981c1.442-0.386,3.243-0.292,4.841,0.273c-0.17-0.618-0.291-1.245-0.365-1.854
	c-0.317-2.62,0.031-5.442,1.275-7.477c-0.005-0.235,0.133-0.509,0.495-0.804c0.084-0.069,0.176-0.136,0.264-0.205
	c0.646-0.704,1.442-1.251,2.421-1.56c2.984-1.532,6.517-1.972,8.688,1.166c2.143-1.151,4.812-1.616,6.672,0.333
	c1.658,1.738,2.258,4.246,2.467,6.611c1.179,0.188,2.373,0.457,3.333,1.171c1.626,1.209,1.971,3.089,1.797,4.985
	c0.042,0.002,0.083-0.001,0.126,0.004c12.61,1.606,0.1,16.068-2.925,21.148c-0.073,0.123-0.175,0.228-0.291,0.321
	c0.147,0.104,0.27,0.242,0.345,0.423c7.159,16.879,14.401,34.106,15.845,52.584c0.974,12.474-1.458,29.165-11.73,37.776
	c-2.66,2.23-6.075,4.113-9.783,5.446c18.86,4.83,35.896,14.653,54.395,20.529c6.585,2.092,13.373,3.618,20.228,4.801
	c-1.292-9.191-2.177-18.456-3.349-27.663c-0.804-6.32-1.613-12.644-2.572-18.942c-0.178-1.168-0.51-8.458-1.799-9.014
	c0.104-0.015,0.208-0.03,0.313-0.045c-0.396-0.035-0.568-0.163-0.11-0.438c-1.913-0.001-3.825-0.01-5.738-0.01
	c-1.062,0-1.039-0.57-0.594-1.094c0-5.274,0.001-10.549,0.001-15.824c0-0.38,0.385-0.688,0.873-0.892
	c0.389-0.351,0.942-0.636,1.432-0.636c5.453,0,10.907,0.009,16.36,0.014c0-2.162,0-4.323,0-6.484c0-0.483,0.717-0.847,1.438-1.005
	c0.019-0.009,0.03-0.02,0.05-0.028c1.431-0.717,3.854-0.271,5.364-0.274c2.92-0.008,5.842-0.001,8.762,0.002
	c-1.547-0.634-3.01-1.616-4.32-2.971c-3.687-3.811-7.97-10.668-7.493-16.259c0.795-9.317,12.684-15.935,20.662-11.51
	c-0.039-3.165,0.686-6.207,2.299-9.059c0.488-0.862,3.407-1.135,2.708,0.099c-1.756,3.104-2.347,6.446-2.01,9.932
	c4.405-1.806,9.905-2.873,13.838,0.296c4.031,3.248,5.104,8.954,4.639,13.878c-0.673,7.151-4.749,13.949-10.831,15.635
	c5.162,0.014,10.324,0.025,15.485,0.026c1.287,0,1.461,0.866,0.979,1.468c0,2.111,0,4.221,0,6.332
	c4.624,0.009,9.247,0.016,13.872,0.023c0.705-7.087-0.568-14.962-0.871-22.011c-0.223-5.153-0.447-10.306-0.721-15.457
	c-0.098-1.853,0.235-4.691-0.333-6.624c-0.947-0.381,0.505-1.859,1.624-1.855c10.169,0.029,20.331,0.47,30.5,0.5
	c0.65,0.002,0.891,0.219,0.879,0.506c0.037,0.027,0.064,0.058,0.066,0.097c0.444,7.707-0.553,15.727-0.879,23.428
	c-0.291,6.847-1.669,14.617-0.843,21.456c6.017,0.007,12.033,0.015,18.051,0.016C534.749,370.612,535.884,370.551,535.884,370.803z
	 M345.79,298.879c-0.758-0.454-1.665-0.572-2.538-0.688c-0.286,0.011-0.563-0.03-0.784-0.137c-0.039-0.012-0.067-0.029-0.103-0.043
	c-2.602,0.554-3.697,3.616-2.982,6.145c0.308,1.086,0.911,2.292,2.022,2.744c0.065,0.027,0.166,0.043,0.26,0.055
	c0.029-0.021,0.06-0.042,0.089-0.066c0.713-0.596,1.257-1.317,1.757-2.095c0.311-0.481,1.198-0.66,1.708-0.757
	c0.017-0.003,0.083-0.012,0.166-0.021c0.5-0.353,1.029-0.664,1.579-0.925c0-0.045-0.005-0.087,0.002-0.138
	C347.166,301.509,347.209,299.728,345.79,298.879z M336.545,290.947c-0.343,0.237-0.815,0.319-1.254,0.285
	c-2.344,2.024-3.482,5.17-2.917,8.449c0.235,1.357,0.646,2.943,1.608,3.99c0.246,0.267,0.546,0.575,0.889,0.769
	c0.062-0.07,0.128-0.159,0.201-0.271c0.16-0.232,0.305-0.476,0.435-0.727c0.116-0.208,0.419-0.37,0.784-0.487
	c0.064-1.236,0.486-2.44,1.311-3.41c1.064-1.253,2.62-1.977,4.254-2.364c0.016-0.087,0.045-0.174,0.085-0.261
	c-0.117-1.686-0.457-3.568-1.325-5.004C339.512,290.093,338.342,289.705,336.545,290.947z M326.22,290.977
	c-0.085,0.069-0.18,0.124-0.276,0.173c-0.734,1.976-0.662,4.972-0.495,6.09c0.224,1.504,0.583,3.264,1.582,4.469
	c1.05,1.268,1.497,1.036,2.579-0.089c0.03-0.031,0.071-0.062,0.111-0.092c-1.103-4.405,0.553-8.258,3.824-10.717
	c-0.179-0.067-0.334-0.171-0.438-0.328C331.165,287.572,328.385,289.208,326.22,290.977z M315.815,308.265
	c2.028,5.825,5.931,10.547,8.865,15.876c0.04,0.011,0.08,0.021,0.114,0.039c5.623,2.841,14.445,3.283,19.484-0.986
	c0.024-0.065,0.051-0.132,0.094-0.204c2.219-3.729,14.042-17.336,4.744-18.52c-0.498-0.063-0.774-0.252-0.887-0.494
	c-2.043,0.89-3.594,3.454-3.821,5.566c-0.066,0.615-0.063,1.811,0.689,2.057c0.566,0.185,2.189-1.319,2.694-1.739
	c0.522-0.434,1.383-0.645,2.049-0.549c0.596,0.085,0.681,0.507,0.235,0.877c-1.802,1.497-4.04,3.032-6.499,2.875
	c-1.336-0.085-2.142-1.079-2.099-2.396c0.033-1.014,0.276-1.971,0.674-2.854c-0.657,0.227-1.355,0.353-2.1,0.33
	c-1.799-0.054-3.048-1.359-3.523-3.042c-0.012-0.042-0.018-0.084-0.028-0.126c-2.1,1.363-4.75,0.759-6.102-1.63
	c-0.681,0.438-1.441,0.795-2.213,0.958c0.021,0.021,0.048,0.041,0.068,0.065c3.339,4.146,6.955,7.774,7.151,13.397
	c0.048,1.388-2.89,1.778-2.945,0.185c-0.167-4.779-3.415-8.117-6.293-11.59c-1.382,1.571-4.554,1.902-6.496,1.866
	c-1.945-0.036,0.261-1.421,1.191-1.403c4.891,0.092,3.019-4.302,0.045-5.555C316.104,299.242,314.604,304.786,315.815,308.265z
	 M293.891,400.62c2.584-0.19,5.274-1.959,7.587-3.906c1.129-0.951,2.166-1.938,3.056-2.808c0.01-0.01,0.02-0.02,0.029-0.028
	c-0.007-0.005-0.016-0.008-0.021-0.012c-0.159-0.107-0.248-0.27-0.222-0.497c2.436-21.674,0.641-44.576-12.299-62.774
	c-2.008,3.293-5.273,5.725-10.503,6.678c-0.495,0.09-1.003,0.161-1.508,0.236c13.141,18.134,16.268,40.611,13.942,62.522
	C293.931,400.227,293.914,400.424,293.891,400.62z M306.473,268.849c-8.493,3.694-18.135,3.134-27.313,2.939
	c-0.121,0.159-0.342,0.315-0.613,0.449c0.007,0.05,0.018,0.097,0.017,0.152c-0.145,6.248-2.043,12.121-4,18
	c-0.127,0.383-0.542,0.675-1.021,0.851c2.764,4.686,6.792,9.368,12.28,10.478c6.554,1.324,13.376-2.096,17.427-7.271
	c2.93-3.743,6.915-9.055,6.931-14.038C310.195,276.304,307.529,272.766,306.473,268.849z M211.474,235.546
	c-0.047-4.748,0.713-9.479,2.436-14.016c-0.229-0.016-0.438-0.077-0.6-0.202c-3.747-2.899-7.066,1.941-7.813,5.375
	C204.432,231.602,206.948,234.813,211.474,235.546z M275.641,272.658c0.005-0.236,0.128-0.444,0.315-0.616
	c-6.488-5.062-11.212-11.908-17.231-17.47c-1.364-0.276-2.655-0.759-3.835-1.494c-3.017-0.932-6.333-1.277-7.94,2.006
	c-0.9,1.837-1.2,3.927-0.85,5.95c0.39,2.255,1.394,4.411,2.921,5.956c2.165,1.433,4.249,2.201,4.249,2.201l-0.004,0.019
	c0.571,0.088,1.17,0.114,1.798,0.067c1.437-0.107,0.43,0.572-0.479,0.94c0.003,0.068,0.004,0.137-0.009,0.214
	c-0.048,0.29-0.101,0.599-0.154,0.911c0.015,0.009,0.034,0.015,0.047,0.026c6.387,5.229,11.737,11.519,17.195,17.678
	c0.176,0.007,0.338,0.037,0.479,0.091C273.91,283.762,275.508,278.366,275.641,272.658z M305.969,268.031
	c-2.918-8.854,3.892-16.624,3.18-25.487c-0.624-7.763-5.507-13.847-9.825-20.016c-3.289,10.25-10.438,20.314-18.522,25.545
	c-4.537,2.936-11.551,6.383-17.911,6.758c5.242,5.185,9.649,11.199,15.438,15.812C287.281,270.727,297.746,272.21,305.969,268.031z
	 M265.784,252.7c-1.893,0.076-3.808-0.018-5.344-0.147c0.048,0.042,0.093,0.085,0.141,0.127
	C262.219,252.992,263.979,252.973,265.784,252.7z M245.69,288.812c4.57,11.273,21.445,10.037,32.364,11.311
	c-2.901-2.01-5.46-4.857-7.547-8.367c-0.04-0.021-0.076-0.044-0.104-0.075c-5.352-5.973-10.507-12.167-16.518-17.489
	C252.729,279.778,250.535,286.718,245.69,288.812z M311.612,248.71c-0.291,0.263-0.564,0.505-0.817,0.723
	c-0.082,0.299-0.167,0.598-0.25,0.897C310.92,249.793,311.277,249.253,311.612,248.71z M223.023,307.571
	c-0.096,0.193-0.246,0.375-0.444,0.523c-0.719,0.921-1.178,1.927-1.134,3.046c0.431,11.024,16.598,11.113,24.813,13.416
	c0.242,0.004,0.465,0.054,0.638,0.17c0.019,0.012,0.037,0.025,0.055,0.037c0.104,0.033,0.214,0.063,0.315,0.099
	c0.394,0.132,0.583,0.329,0.636,0.547c4.379,2.98,8.816,6.262,13.743,8.215c5.975,2.369,12.091,2.713,18.439,1.913
	c11.791-1.483,12.33-12.016,11.963-21.65c-4.102,2.831-10.601,3.732-15.802,4.139c-2.005,0.157-1.074-1.556,0.378-1.669
	c4.062-0.317,8.591-0.508,12.31-2.338c4.59-2.258,4.901-6.537,3.432-10.96c-4.289,0.927-8.372,0.312-12.021-1.557
	c-0.529,0.25-1.174,0.432-1.491,0.373c-11.278-2.083-32.344,0.618-36.534-13.629c-0.143-0.485,0.838-0.966,1.701-1.094
	c0.032-0.014,0.057-0.03,0.091-0.043c1.483-0.574,2.672-1.851,3.64-3.47c-0.057-0.008-0.115-0.015-0.167-0.031
	c-1.464-0.445-2.9-0.987-4.316-1.588c-0.211,0.075-0.432,0.117-0.654,0.102c-5.769-0.376-10.015,4.677-10.424,10.172
	c-0.022,0.297-0.034,0.59-0.04,0.881c0.122,0.115,0.209,0.264,0.236,0.461c0.129,0.949,0.146,1.853,0.063,2.719
	c0.701,3.275,2.637,5.999,5.764,7.975c1.421,0.898-1.085,2.441-2.22,1.725c-2.287-1.446-3.937-3.361-5.016-5.495
	c-0.495,0.758-1.102,1.479-1.848,2.154C227.59,304.105,224.787,305.646,223.023,307.571z M67.681,346.809
	c0.201,0.028,0.388,0.093,0.539,0.213c6.95,5.54,16.688,5.806,22.31-1.869c4.617-6.303,4.516-14.802-0.859-20.7
	c-6.071-6.661-15.988-6.779-21.813,0.445C62.364,331.714,63.068,339.903,67.681,346.809z M65.98,438.521
	c7.979-0.273,15.902-1.057,23.79-2.158c1.27-11.625,3.894-22.829,3.205-34.653c-0.989-16.968-5.556-33.375-6.584-50.378
	c-5.477,2.728-11.657,2.483-17.122-0.475c-0.375,6.898-0.913,13.758-2.125,20.57c-1.767,9.935-4.016,19.75-4.454,29.871
	C62.14,413.997,64.692,426,65.98,438.521z M164.215,422.901c-0.863-8.644,0.946-17.792,2.125-26.253
	c1.052-7.545,2.33-15.079,3.926-22.542c0.523-2.448,1.091-4.885,1.688-7.316c1.274-5.193,2.709-10.347,4.364-15.431
	c1.38-4.239,3.173-8.049,5.312-11.494c1.233-1.985,2.58-3.853,4.036-5.603c3.13-3.761,6.75-7,10.756-9.815
	c-6.533,1.381-12.587,3.751-18.183,7.552c-0.624,0.423-3.551,0.589-2.271-0.28c7.025-4.771,14.701-7.557,23.037-9.029
	c0.025-0.004,0.043-0.005,0.067-0.009c5.945-3.761,12.628-6.705,19.744-9.122c-0.441-1.998-0.1-3.606,0.688-4.997
	c-12.367,0.779-24.956,2.123-36.816,5.775c-12.258,3.773-24.133,9.152-35.533,15.006c-18.073,9.278-36.855,21.485-57.856,21.584
	c0.403,7.299,1.025,14.535,2.351,21.739c1.727,9.385,3.792,18.701,4.223,28.268c0.54,11.989-1.993,23.222-3.246,35.018
	C116.583,432.383,140.242,426.152,164.215,422.901z M282.823,416.428c-0.363,0.032-0.727,0.063-1.091,0.094
	c-0.748,0.294-1.675,0.309-1.872-0.125c-0.085-0.096-0.102-0.215-0.06-0.345c-0.677-8.18-13.768-5.919-18.784-3.569
	c-0.175,0.082-0.356,0.133-0.535,0.162c-0.283,7.597-1.485,15.016-3.034,22.469c8.877,1.904,21.47,5.149,26.33-3.907
	C285.851,427.343,289.13,417.257,282.823,416.428z M313.896,415.275c-4.759-5.235-7.277-12.696-9.09-19.491
	c-3.53,3.014-7.844,5.736-12.338,5.96c-0.3,0.016-0.482-0.004-0.591-0.042c-0.529-0.011-0.942-0.207-0.892-0.666
	c1.162-10.457,1.08-21.064-0.76-31.269c-0.19-1.054-0.405-2.103-0.633-3.146c-2.22-10.162-6.271-19.856-12.674-28.521
	c-0.051-0.069-0.101-0.138-0.152-0.207c-0.556,0.044-1.117,0.065-1.677,0.089c-4.387,0.189-8.876-0.251-12.885-1.667
	c-6.178-2.183-11.521-5.935-16.92-9.563c-8.019-2.556-22.376-2.201-26.006-11.662c-0.774,0.258-1.55,0.51-2.319,0.78
	c-10.889,3.923-21.953,9.29-29.196,18.666c-8.39,10.862-11.498,25.008-14.35,38.176c-2.816,13.003-4.884,26.251-6.089,39.507
	c-0.304,3.338-0.507,7.064-0.086,10.6c0.257,0.22,0.28,0.58,0.127,0.933c0.799,5.214,3.094,9.886,8.651,12.076
	c6.555,2.584,13.697,1.915,20.576,1.62c8.444-0.361,16.884-0.824,25.325-1.248c7.905-0.395,15.815-0.813,23.729-0.983
	c1.834-0.04,5.273-0.572,8.043-0.354c0.401-0.148,0.809-0.258,1.089-0.268c1.56-7.65,2.732-15.266,2.859-23.106
	c-10.23-3.765-21.053-6.486-31.803-8.058c-4.553-0.666-11.438-1.699-17.769-1.219c-0.011,0-0.021,0.001-0.032,0.002
	c-6.799,0.521-12.952,2.794-14.87,9.176c-0.397,1.323-3.288,1.257-2.789-0.401c2.241-7.458,9.547-10.111,17.177-10.808
	c0.017-0.053,0.029-0.092,0.048-0.154c0.189-0.615,0.368-1.232,0.53-1.854c0.419-1.609,0.806-3.227,1.164-4.851
	c0.994-4.505,1.882-9.036,2.638-13.587c1.301-7.838,3.721-17.596,1.723-25.489c-0.28-1.104,2.621-1.869,2.897-0.775
	c1.149,4.54,0.45,9.719-0.065,14.294c-0.712,6.33-1.731,12.627-2.962,18.875c-0.858,4.352-1.63,8.836-3.018,13.06
	c-0.029,0.087-0.076,0.194-0.131,0.309c3.961-0.132,7.853,0.169,11.014,0.51c13.496,1.455,27.187,4.774,39.87,9.649
	c0.222,0.085,0.38,0.189,0.487,0.308c2.631-0.92,6.268-1.727,9.777-1.856c2.26-0.084,4.462,0.115,6.311,0.743
	c2.518,0.855,4.373,2.51,4.801,5.348c0.015,0.096,0.021,0.197,0.033,0.296c0.738-0.064,1.474-0.128,2.21-0.194
	C294.651,413.936,304.331,413.042,313.896,415.275z M209.499,400.044c-0.71-0.853-1.336-0.363-1.718,0.117
	C208.354,400.112,208.926,400.072,209.499,400.044z M329.709,419.754c9.353,0.313,19.621-4.191,24.178-12.164
	c3.578-6.261,5.487-12.834,6.197-19.554c0.429-4.066,0.417-8.187,0.056-12.323c-1.534-17.556-9.296-35.419-15.819-50.802
	c-0.002-0.006-0.002-0.011-0.004-0.017c-5.518,3.149-13.097,3.481-19.14,1.559c-0.435,7.811-0.874,15.624-1.089,23.444
	c-0.171,6.218,0.031,12.425-0.813,18.6c-1.281,9.369-5.562,24.087,1.148,32.202c0.994,1.202-1.745,2.4-2.643,1.314
	c-6.615-8-3.089-21.702-1.789-30.914c0.151-1.07,0.285-2.144,0.409-3.218c-0.189-0.055-0.338-0.15-0.413-0.306
	c-1.219-2.525-1.232-4.907-1.553-7.646c-0.651-5.551-1.804-11.036-3.765-16.279c-3.412-9.122-9.283-21.882-19.731-24.383
	c-0.16,3.035-0.604,5.936-1.562,8.504c0.095,0.045,0.179,0.102,0.237,0.179c14.118,18.668,16.141,42.485,13.604,65.059
	c-0.004,0.035-0.019,0.067-0.029,0.102c0.27,0.026,0.396,0.113,0.222,0.284c-0.047,0.046-0.097,0.093-0.146,0.139
	c0.051,0.079,0.094,0.165,0.119,0.266c2.167,8.381,5.565,19.802,13.974,24.065c1.021,0.519,2.111,0.938,3.289,1.227
	C326.273,419.492,327.978,419.696,329.709,419.754z M487.6,326.858c0.281,1.844,0.053,4.148,0.135,5.729
	c0.267,5.15,0.5,10.303,0.719,15.457c0.042,0.99,0.106,2,0.179,3.02c0.224-0.093,0.452-0.152,0.668-0.152
	c8.155-0.001,16.312-0.022,24.467-0.026c0.023-0.561,0.046-1.121,0.069-1.682c0.306-7.192,1.206-14.672,0.858-21.884
	C505.661,327.272,496.632,326.94,487.6,326.858z M489.263,370.803c-0.001,0.011-0.008,0.021-0.011,0.032
	c7.878,0.014,15.757,0.022,23.635,0.031c-0.101-2.048,0.226-4.25,0.306-6.242c0.158-3.933,0.326-7.863,0.493-11.795
	c-8.306,0.001-16.609,0.024-24.914,0.027C489.256,358.821,489.953,365.091,489.263,370.803z M445.722,362.955
	c1.431,0.004,2.86,0.008,4.291,0.012c-0.78-0.204-1.583-0.494-2.399-0.86C446.99,362.434,446.358,362.719,445.722,362.955z
	 M446.502,360.654c0.563-0.301,1.167-0.268,1.558-0.062c0.516-0.173,1.063-0.242,1.365-0.095
	c9.524,4.632,14.602-5.995,14.672-14.128c0.032-3.615-0.643-7.93-3.269-10.646c-3.715-3.842-8.618-2.716-12.992-0.622
	c-0.002,0.001-0.005,0.002-0.008,0.003c-0.521,0.267-1.204,0.385-1.667,0.271c-0.426,0.04-0.826-0.025-1.063-0.256
	c-7.63-7.383-19.296,2.702-16.801,11.686C430.428,354.483,437.078,365.7,446.502,360.654z M423.884,370.733
	c15.255,0.015,30.51,0.039,45.765,0.068c0-1.921,0-3.842,0-5.765c-9.381-0.005-18.763-0.041-28.144-0.06
	c-4.396-0.008-8.795-0.021-13.192-0.008c-1.249,0.003-2.499,0.005-3.748,0.02c-0.209,0.002-0.456,0.038-0.681,0.073
	C423.884,366.953,423.884,368.843,423.884,370.733z M527.688,389.488c-38.759-0.027-77.518-0.271-116.275-0.311
	c0.705,0.888,0.752,2.71,0.993,4.111c1.121,6.514,1.964,13.075,2.811,19.628c1.407,10.89,2.433,21.852,4.002,32.718
	c0.006,0.044,0.001,0.088-0.014,0.131c6.282,0.992,12.604,1.731,18.872,2.349c16.516,1.626,33.213,2.367,49.801,1.588
	c10.907-0.511,24.245-0.762,34.381-5.846c-0.852-2.068,0.466-6.59,0.687-8.678c0.652-6.206,1.362-12.406,2.063-18.607
	c0.7-6.203,1.414-12.406,2.036-18.617C527.299,395.397,528.127,392.1,527.688,389.488z M532.986,387.55c0-4.906,0-9.813,0-14.72
	c-20.687-0.001-41.372-0.039-62.06-0.078c-0.146,0-0.294,0-0.441-0.001c-21.756-0.042-43.512-0.083-65.268-0.087
	c0,4.853-0.001,9.703-0.001,14.555C447.807,387.23,490.396,387.538,532.986,387.55z M380.61,234.785c0-4.521,0-9.041,0-13.562
	c0-1.594-2.945-1.214-2.945,0.184c0,4.521,0,9.041,0,13.562C377.664,236.563,380.61,236.183,380.61,234.785z M380.61,267.721
	c0-4.521,0-9.041,0-13.562c0-1.594-2.945-1.214-2.945,0.184c0,4.521,0,9.041,0,13.562
	C377.664,269.498,380.61,269.118,380.61,267.721z M355.325,245.387c4.521,0,9.041,0,13.562,0c1.084,0,3.086-1.646,1.127-1.646
	c-4.521,0-9.041,0-13.562,0C355.368,243.741,353.366,245.387,355.325,245.387z M388.283,245.469c4.521,0,9.041,0,13.562,0
	c1.193,0,3.043-1.811,1.082-1.811c-4.521,0-9.041,0-13.562,0C388.172,243.659,386.322,245.469,388.283,245.469z M370.957,238.338
	c0.885,0.885,3.632-0.276,2.66-1.248c-3.196-3.196-6.394-6.393-9.59-9.589c-0.885-0.885-3.632,0.276-2.66,1.248
	C364.564,231.945,367.761,235.141,370.957,238.338z M384.64,251.977c3.197,3.196,6.395,6.393,9.591,9.589
	c0.71,0.71,3.45-0.369,2.692-1.127c-3.196-3.196-6.394-6.393-9.59-9.589C386.623,250.14,383.882,251.219,384.64,251.977z
	 M371.126,251.175c-3.197,3.197-6.393,6.393-9.59,9.59c-1.202,1.201,1.649,1.152,2.324,0.478c3.197-3.196,6.393-6.393,9.59-9.589
	C374.652,250.451,371.801,250.5,371.126,251.175z M387.167,238.021c3.196-3.197,6.394-6.393,9.59-9.589
	c1.238-1.238-1.602-1.372-2.359-0.613c-3.197,3.196-6.395,6.393-9.591,9.589C383.569,238.646,386.408,238.78,387.167,238.021z
	 M205.12,158.289c0-4.521,0-9.041,0-13.563c0-1.594-2.945-1.214-2.945,0.184c0,4.521,0,9.041,0,13.562
	C202.173,160.067,205.12,159.687,205.12,158.289z M205.12,191.225c0-4.521,0-9.041,0-13.562c0-1.594-2.945-1.214-2.945,0.184
	c0,4.521,0,9.041,0,13.562C202.173,193.002,205.12,192.622,205.12,191.225z M179.834,168.891c4.521,0,9.041,0,13.562,0
	c1.084,0,3.086-1.646,1.127-1.646c-4.521,0-9.041,0-13.562,0C179.876,167.245,177.875,168.891,179.834,168.891z M212.792,168.973
	c4.521,0,9.041,0,13.562,0c1.193,0,3.043-1.811,1.082-1.811c-4.521,0-9.041,0-13.562,0
	C212.681,167.163,210.831,168.973,212.792,168.973z M195.466,161.842c0.885,0.885,3.632-0.276,2.66-1.248
	c-3.196-3.196-6.393-6.393-9.59-9.589c-0.885-0.885-3.632,0.276-2.66,1.248C189.073,155.449,192.27,158.645,195.466,161.842z
	 M209.149,175.48c3.197,3.196,6.394,6.394,9.59,9.589c0.71,0.71,3.451-0.369,2.693-1.127c-3.197-3.196-6.394-6.393-9.59-9.589
	C211.132,173.644,208.391,174.723,209.149,175.48z M195.635,174.678c-3.197,3.197-6.393,6.393-9.59,9.59
	c-1.202,1.201,1.649,1.152,2.324,0.478c3.197-3.196,6.393-6.393,9.59-9.589C199.162,173.955,196.31,174.004,195.635,174.678z
	 M211.676,161.525c3.196-3.197,6.393-6.393,9.59-9.589c1.238-1.238-1.602-1.372-2.36-0.613c-3.197,3.196-6.394,6.393-9.59,9.589
	C208.079,162.15,210.917,162.284,211.676,161.525z" fill="#cb997e"></path>
</svg>