<svg
  width="320"
  height="80"
  viewBox="0 0 320 80"
  fill="none"
  xmlns="http://www.w3.org/2000/svg"
>
<path
    d="M60.7729 29.87C60.8318 29.7947 60.902 29.7181 60.902 29.6161C60.902 29.4876 60.8575 29.3747 60.7813 29.2812C60.0624 27.4153 53.4215 11 43.387 11C41.7187 11 40.042 11.4687 38.391 12.3823C37.4733 12.8913 36.3695 14.3079 36.1454 15.9147C36.0035 16.9484 36.2384 17.9168 36.8262 18.7539C35.5957 19.1109 34.4326 19.7025 33.4391 20.5432C31.7668 21.9533 30.7341 23.8829 30.4261 26.0092C30.1194 23.8829 29.089 21.9594 27.4132 20.5432C26.4217 19.6961 25.2586 19.1109 24.0249 18.7539C24.6159 17.9164 24.8536 16.9484 24.7089 15.9147C24.4836 14.3083 23.383 12.8917 22.4633 12.3823C20.8151 11.4683 19.1356 11 17.4685 11C7.05676 11 0.300697 28.6779 0.0164381 29.4356C0.00360837 29.4662 0.0144335 29.498 0.00801859 29.5331C0.00200465 29.5682 0 29.5919 0 29.631C0 29.7552 0.0308716 29.8773 0.11226 29.9792C0.205276 30.0901 0.337182 30.1316 0.475903 30.1493C0.493945 30.1493 0.504369 30.1707 0.521609 30.1707C0.537246 30.1707 0.550075 30.1537 0.566914 30.1537C0.591371 30.1493 0.612219 30.1622 0.636676 30.1582C3.09157 29.6226 5.16758 29.363 6.987 29.363C8.73425 29.363 10.2714 29.596 11.9726 30.1122C15.6844 31.2394 18.104 31.7178 20.0617 31.7178C22.956 31.7178 24.8877 30.6257 26.3178 28.1645C27.4805 26.1708 27.7904 24.2932 27.2367 22.576C27.0864 22.1117 26.8751 21.7047 26.6382 21.3222C26.6626 21.3436 26.6931 21.3573 26.7163 21.3766C28.3293 22.7368 29.3019 24.6281 29.4531 26.7024C29.8211 31.7637 26.2268 34.4667 20.3363 38.4581C19.1304 39.2698 17.8678 40.0363 16.5339 40.8383C10.6435 44.3916 4.55135 48.0557 3.93633 56.2291C3.67813 59.6764 4.80434 62.911 7.10768 65.3383C9.55896 67.9204 13.1377 69.374 16.9802 69.374C17.1325 69.374 17.2857 69.374 17.44 69.3696C20.4506 69.2765 23.2459 68.0139 25.3135 65.8058C27.3254 63.6614 28.3878 60.8645 28.3622 57.9318C28.8381 57.9762 29.2534 57.9931 29.5565 57.9931C29.682 57.9931 29.7666 57.9891 29.8492 57.9846V58.114C29.8492 58.1478 29.8809 58.1672 29.8885 58.2035V60.7795V68.3879C29.8885 68.6873 30.1307 68.9319 30.4297 68.9319C30.7276 68.9319 30.9714 68.6877 30.9714 68.3879V60.7795V58.2035C30.9778 58.1672 31.0095 58.1478 31.0095 58.114V57.9846C31.0941 57.9891 31.1763 57.9931 31.3022 57.9931C31.6057 57.9931 32.021 57.9762 32.4965 57.9318C32.4669 60.8685 33.5325 63.6614 35.5452 65.8058C37.6132 68.0139 40.4081 69.2761 43.4191 69.3696C43.5714 69.374 43.7278 69.374 43.8797 69.374C47.7194 69.374 51.3009 67.9208 53.7514 65.3383C56.0536 62.9154 57.181 59.6764 56.9228 56.2291C56.3097 48.0557 50.2144 44.3916 44.328 40.8383C42.9917 40.0359 41.7315 39.2698 40.5243 38.4581C34.6299 34.4667 31.04 31.7637 31.408 26.7024C31.5624 24.6281 32.5306 22.7368 34.146 21.3766C34.1672 21.3553 34.1989 21.3416 34.2217 21.3222C33.9892 21.7047 33.7735 22.1117 33.6256 22.576C33.0715 24.2932 33.3806 26.1708 34.5433 28.1645C35.9722 30.6253 37.9051 31.7178 40.8014 31.7178C42.7591 31.7178 45.1779 31.2374 48.8905 30.1122C50.5905 29.598 52.1297 29.363 53.8761 29.363C55.6943 29.363 57.7707 29.6226 60.2276 30.1582C60.2637 30.1666 60.3034 30.1707 60.3355 30.1666C60.3399 30.1666 60.3399 30.1707 60.3399 30.1707C60.3443 30.1666 60.3483 30.1707 60.3527 30.1707C60.4858 30.1493 60.6233 30.0856 60.7288 29.9881C60.7372 29.9837 60.7476 29.9837 60.752 29.9796C60.7685 29.9381 60.7601 29.8986 60.7729 29.87ZM3.52658 24.4669L6.27615 24.5346C4.49683 25.7618 2.97049 26.9329 1.88357 27.799C2.29492 26.8914 2.84459 25.7428 3.52658 24.4669ZM5.72447 20.7741C5.75414 20.787 5.76777 20.8197 5.80265 20.8285L10.3704 21.9207C9.46554 22.4519 8.57548 22.9959 7.72872 23.5529C7.67499 23.5319 7.6337 23.4819 7.57356 23.4819L4.11554 23.3969C4.60067 22.5433 5.14192 21.6571 5.72447 20.7741ZM6.80698 25.505L6.41487 28.2975C5.22451 28.3273 3.91508 28.472 2.49418 28.709C3.55103 27.8723 5.06374 26.7197 6.80698 25.505ZM8.01739 24.6761C8.94353 24.0554 9.92421 23.4445 10.9201 22.8524L10.028 28.5385C9.20975 28.399 8.367 28.3164 7.50781 28.3015L8.01739 24.6761ZM11.7532 21.1352L6.36315 19.8476C6.99542 18.9465 7.67499 18.0708 8.40228 17.2377C8.45641 17.3228 8.50612 17.4118 8.60435 17.4598L14.0357 19.9931C13.2736 20.3445 12.5114 20.7242 11.7532 21.1352ZM18.8858 19.3971L17.9584 30.4258C17.0475 30.2908 16.0356 30.0901 14.8368 29.7789C14.8368 29.7705 14.8412 29.7705 14.8412 29.766L16.06 20.2801C17.0347 19.8996 17.9873 19.5841 18.8858 19.3971ZM19.4547 18.2449L13.1721 13.2423C14.2675 12.6547 15.4262 12.2892 16.6282 12.1627C16.647 12.2646 16.6642 12.367 16.74 12.4476L22.3695 18.2674C21.481 18.0748 20.4939 18.0974 19.4547 18.2449ZM23.6396 16.0561C23.7242 16.6586 23.6184 17.2156 23.3586 17.7274L17.926 12.1127C19.2603 12.1881 20.609 12.5842 21.9401 13.3294C22.5383 13.6598 23.46 14.7935 23.6396 16.0561ZM12.1846 13.8448L18.0643 18.5233C17.1794 18.7498 16.2769 19.0239 15.3496 19.3987L9.07785 16.4696C10.0417 15.4621 11.0853 14.5715 12.1846 13.8448ZM11.0873 28.7875L12.1245 22.1641C13.0527 21.6511 13.984 21.1747 14.9078 20.7616L13.7872 29.4876C13.2956 29.3485 12.8273 29.224 12.2861 29.0596C11.8727 28.935 11.4858 28.8806 11.0873 28.7875ZM19.0349 30.5543L19.9831 19.2439C20.0573 19.2395 20.1363 19.2226 20.2085 19.2141C20.3099 19.3914 20.4707 19.5288 20.6916 19.4906C21.4104 19.4184 22.1261 19.4769 22.8321 19.597L22.0467 30.1424C22.0423 30.2106 22.088 30.2585 22.1048 30.321C21.4918 30.4995 20.8323 30.6196 20.0613 30.6196C19.7474 30.6172 19.3877 30.5841 19.0349 30.5543ZM25.3853 27.6047C24.759 28.6799 24.0361 29.4336 23.1525 29.9212L23.8914 20.004C24.6876 20.5521 25.7573 21.5012 26.2076 22.8984C26.6618 24.3061 26.3852 25.8927 25.3853 27.6047ZM23.8385 54.9391C22.1261 53.19 21.9725 50.3315 21.9854 49.1946C23.1441 49.1991 25.9562 49.3989 27.6685 51.146C29.3829 52.895 29.5373 55.7536 29.5269 56.8925C28.3642 56.8905 25.5508 56.6906 23.8385 54.9391ZM31.3294 56.8969C31.319 55.762 31.473 52.8991 33.1857 51.1524C34.9025 49.399 37.7146 49.2035 38.8733 49.1991C38.8858 50.3319 38.7338 53.19 37.017 54.9459C35.3043 56.6906 32.4921 56.8905 31.3294 56.8969ZM39.9177 39.3528C41.1442 40.1818 42.4821 40.985 43.7659 41.7608C49.4194 45.1654 55.2677 48.6953 55.8423 56.3037C55.9441 57.6723 55.7665 58.9881 55.4024 60.2398C55.39 60.2592 55.3603 60.2592 55.3519 60.2761C53.0554 63.6255 50.1334 64.65 47.1064 63.1347C45.9606 62.5692 45.1018 61.5875 44.6876 60.37C44.2795 59.1477 44.358 57.8472 44.9246 56.691C45.8379 54.8315 48.0747 54.0682 49.9185 54.9822C51.339 55.6834 51.9272 57.4224 51.2272 58.8543C50.9565 59.4068 50.485 59.7893 49.9438 59.9682C50.02 59.724 50.0601 59.4645 49.9991 59.1924C49.8255 58.3634 49.0052 57.8367 48.1809 58.0193C47.3478 58.1978 46.8278 59.0139 47.0094 59.8514C47.1449 60.5103 47.699 60.9608 48.3333 61.033C49.8299 61.4755 51.4793 60.7992 52.1982 59.3415C53.156 57.3777 52.3506 54.9806 50.3968 54.0158C48.0201 52.8471 45.1302 53.8244 43.9503 56.2239C43.2591 57.6372 43.1536 59.2416 43.6584 60.7319C44.164 62.2235 45.2188 63.4309 46.6269 64.1256C47.6902 64.6568 48.7562 64.9163 49.7983 64.9163C51.1955 64.9163 52.5486 64.4299 53.7963 63.505C53.5257 63.8705 53.2847 64.2554 52.9656 64.5887C50.6274 67.0458 47.1637 68.4016 43.4495 68.2827C40.726 68.2017 38.1974 67.0608 36.3282 65.063C34.4719 63.0823 33.4932 60.4958 33.563 57.7799C34.9542 57.5163 36.582 56.9509 37.7872 55.7205C40.303 53.1514 39.9482 48.8158 39.9314 48.6328C39.9101 48.3697 39.6988 48.1609 39.4366 48.1396C39.4366 48.144 34.9631 47.8083 32.4204 50.3988C31.7841 51.0509 31.3306 51.8057 31.0103 52.59V52.1926C31.0103 48.3354 33.9162 45.171 37.6373 44.716C37.8866 45.273 38.4363 45.6643 39.0834 45.6643C39.9626 45.6643 40.6775 44.9502 40.6775 44.068C40.6775 43.1797 39.9631 42.4652 39.0834 42.4652C38.3517 42.4652 37.766 42.9649 37.5755 43.6428C34.7045 43.97 32.2816 45.6997 30.9758 48.1524V41.9244C31.5856 41.6971 32.0254 41.122 32.0254 40.4324C32.0254 39.5486 31.3134 38.8301 30.4346 38.8301C29.5529 38.8301 28.8445 39.5486 28.8445 40.4324C28.8445 41.1147 29.2843 41.6971 29.8933 41.9244V48.1512C28.5879 45.6985 26.1627 43.9688 23.2916 43.6416C23.1036 42.9637 22.5146 42.464 21.7853 42.464C20.9037 42.464 20.192 43.1781 20.192 44.0668C20.192 44.9485 20.9037 45.6631 21.7853 45.6631C22.43 45.6631 22.9797 45.2717 23.2295 44.7148C26.9505 45.1698 29.8564 48.3278 29.8564 52.1914V52.5888C29.5361 51.8109 29.0834 51.046 28.4472 50.3976C25.9025 47.8026 21.4297 48.1383 21.4297 48.1383C21.1655 48.1597 20.953 48.364 20.9317 48.6316C20.9169 48.8146 20.5597 53.1501 23.0747 55.7193C24.2831 56.9501 25.9109 57.5151 27.2993 57.7787C27.3691 60.4945 26.392 63.0811 24.5329 65.0618C22.6637 67.0595 20.1351 68.2005 17.414 68.2815C13.6557 68.356 10.2329 67.0446 7.89671 64.5875C7.57837 64.2542 7.3334 63.8693 7.06799 63.5038C8.31247 64.4327 9.6632 64.9151 11.0641 64.9151C12.1033 64.9151 13.1689 64.6556 14.2334 64.1244C15.6435 63.4337 16.6975 62.2247 17.2015 60.7307C17.7079 59.2343 17.6064 57.636 16.912 56.2186C15.7345 53.8276 12.8442 52.8374 10.4687 54.015C8.51414 54.9798 7.70627 57.3769 8.66729 59.3492C9.38215 60.7944 11.0292 61.4807 12.5258 61.0322C13.1601 60.9645 13.7142 60.5095 13.8545 59.8505C14.0365 59.0131 13.5153 58.197 12.6834 58.0185C11.8587 57.8359 11.0408 58.3626 10.8628 59.1916C10.8038 59.4592 10.8407 59.7228 10.9189 59.9674C10.3797 59.7889 9.90817 59.402 9.63995 58.8535C8.94033 57.4212 9.52689 55.6826 10.9478 54.9814C12.7828 54.0638 15.0264 54.8351 15.9418 56.6902C16.5075 57.8464 16.5897 59.1509 16.1787 60.3692C15.7666 61.5867 14.907 62.5684 13.7555 63.1359C10.7333 64.6322 7.8081 63.6247 5.51318 60.2753C5.50035 60.2584 5.47389 60.2584 5.46146 60.237C5.10022 58.9913 4.92221 57.6739 5.02365 56.3009C5.59577 48.6925 11.4437 45.169 17.1004 41.7555C18.389 40.9821 19.7201 40.1721 20.9498 39.35C26.2609 35.7543 29.777 33.1231 30.4374 28.8992C31.0893 33.1259 34.6022 35.7567 39.9177 39.3528ZM38.4884 18.2674L44.1187 12.4476C44.1949 12.367 44.2117 12.2646 44.2285 12.1627C45.4317 12.2912 46.5904 12.6572 47.6854 13.2423L41.4104 18.2408C40.3656 18.0929 39.3761 18.0708 38.4884 18.2674ZM44.793 20.2841L46.0107 29.7656C46.0107 29.7741 46.0151 29.7741 46.0151 29.7785C44.8187 30.0897 43.8036 30.2843 42.8946 30.4254L41.9685 19.3967C42.869 19.5841 43.8248 19.904 44.793 20.2841ZM52.4552 17.2377C53.1821 18.0708 53.8633 18.9465 54.4931 19.8476L49.1147 21.1312C48.3537 20.7201 47.5923 20.3409 46.827 19.9935L52.2563 17.4602C52.3538 17.4118 52.4027 17.3228 52.4552 17.2377ZM56.7407 23.3969L53.2839 23.4819C53.227 23.4819 53.1869 23.5319 53.134 23.5533C52.2864 22.9963 51.3984 22.4523 50.4931 21.9211L55.0516 20.8289C55.0897 20.8205 55.1021 20.7834 55.1318 20.7745C55.7152 21.6571 56.2568 22.5433 56.7407 23.3969ZM52.8397 24.6761L53.3433 28.2669C52.4869 28.293 51.6517 28.3741 50.8274 28.522L49.935 22.8529C50.9333 23.4445 51.914 24.0554 52.8397 24.6761ZM54.0493 25.505C55.7705 26.7092 57.2672 27.8429 58.3244 28.6799C56.9059 28.4385 55.6266 28.3019 54.4386 28.2685L54.0493 25.505ZM54.5821 24.537L57.3305 24.4689C58.0113 25.7452 58.561 26.8874 58.9711 27.7969C57.8846 26.9329 56.3627 25.7682 54.5821 24.537ZM51.7808 16.4801L45.5163 19.4055C44.5862 19.0263 43.6813 18.7458 42.7972 18.5258L48.6748 13.8472C49.7702 14.5715 50.8146 15.4621 51.7808 16.4801ZM37.2195 16.0561C37.3971 14.7939 38.3188 13.6578 38.9194 13.3233C40.2513 12.5826 41.596 12.1885 42.9323 12.1107L37.4989 17.7254C37.2431 17.2156 37.1353 16.6586 37.2195 16.0561ZM35.4734 27.6047C34.4755 25.8927 34.1961 24.3105 34.6487 22.9089C35.0926 21.5137 36.1711 20.5581 36.9657 20.0056L37.7058 29.9272C36.8222 29.4336 36.0993 28.6799 35.4734 27.6047ZM40.793 30.6172C40.0236 30.6172 39.3641 30.4927 38.7506 30.3186C38.7675 30.2557 38.814 30.2037 38.8096 30.14L38.023 19.5945C38.7294 19.4744 39.4438 19.412 40.1627 19.4833C40.3908 19.5184 40.552 19.3854 40.649 19.2113C40.7248 19.2165 40.797 19.2334 40.8752 19.2423L41.8242 30.5487C41.4693 30.5841 41.1101 30.6172 40.793 30.6172ZM48.5734 29.0592C48.0322 29.224 47.5587 29.3481 47.0723 29.4872L45.9517 20.7612C46.8739 21.1727 47.808 21.6483 48.7342 22.1637L49.7658 28.7388C49.3685 28.8331 48.9775 28.9395 48.5734 29.0592Z"
    fill="#6B705C"
  />
<path
    d="M96.6562 36.5C97.4271 35.3958 98.3021 34.4062 99.2812 33.5312C99.6771 33.1562 100.115 32.7917 100.594 32.4375C101.094 32.0833 101.615 31.7708 102.156 31.5C102.719 31.2083 103.302 30.9792 103.906 30.8125C104.531 30.6458 105.167 30.5625 105.812 30.5625C107.208 30.5625 108.458 30.8333 109.562 31.375C110.667 31.9167 111.594 32.8229 112.344 34.0938C113.094 35.3646 113.667 37.0521 114.062 39.1562C114.458 41.2396 114.656 43.8333 114.656 46.9375C114.656 49.9583 114.385 52.5833 113.844 54.8125C113.302 57.0417 112.594 58.9375 111.719 60.5C110.844 62.0625 109.854 63.3333 108.75 64.3125C107.646 65.3125 106.531 66.0938 105.406 66.6562C104.281 67.2188 103.198 67.6042 102.156 67.8125C101.115 68.0417 100.219 68.1667 99.4688 68.1875L99.1562 66.9062C100.094 66.6771 100.927 66.25 101.656 65.625C102.385 65 103 63.9792 103.5 62.5625C104 61.125 104.375 59.1979 104.625 56.7812C104.896 54.3646 105.031 51.25 105.031 47.4375C105.031 44.8125 104.906 42.7188 104.656 41.1562C104.427 39.5729 104.115 38.375 103.719 37.5625C103.344 36.7292 102.906 36.1875 102.406 35.9375C101.927 35.6667 101.438 35.5312 100.938 35.5312C100.333 35.5312 99.8021 35.6979 99.3438 36.0312C98.8854 36.3438 98.4792 36.7083 98.125 37.125C97.7917 37.5417 97.5 37.9583 97.25 38.375C97.0208 38.7917 96.8229 39.1042 96.6562 39.3125V60.1875C96.6562 60.4583 96.6146 60.7917 96.5312 61.1875C96.4479 61.5625 96.2396 61.9271 95.9062 62.2812C95.5938 62.6146 95.1146 62.8958 94.4688 63.125C93.8438 63.375 92.9792 63.5 91.875 63.5C90.7708 63.5 89.8958 63.3646 89.25 63.0938C88.6042 62.8438 88.1146 62.5417 87.7812 62.1875C87.4688 61.8333 87.2708 61.4688 87.1875 61.0938C87.1042 60.7188 87.0625 60.4167 87.0625 60.1875V19.875C87.0625 19.2708 86.9167 18.75 86.625 18.3125C86.3542 17.8542 85.8854 17.625 85.2188 17.625C84.8646 17.625 84.5521 17.6875 84.2812 17.8125C84.0312 17.9167 83.7604 18.0833 83.4688 18.3125L82.8438 17.5625C83.3229 17.1667 83.8542 16.7812 84.4375 16.4062C85.0208 16.0104 85.6562 15.6667 86.3438 15.375C87.0521 15.0833 87.8021 14.8438 88.5938 14.6562C89.3854 14.4688 90.2188 14.375 91.0938 14.375C92.4479 14.375 93.5 14.5625 94.25 14.9375C95 15.2917 95.5521 15.7396 95.9062 16.2812C96.2604 16.8021 96.4688 17.3646 96.5312 17.9688C96.6146 18.5521 96.6562 19.0729 96.6562 19.5312V36.5ZM129.188 48.6562C129.188 49.3229 129.281 50.0521 129.469 50.8438C129.677 51.6146 129.969 52.3958 130.344 53.1875C130.719 53.9792 131.177 54.7396 131.719 55.4688C132.281 56.1771 132.917 56.8125 133.625 57.375C134.354 57.9375 135.156 58.3854 136.031 58.7188C136.906 59.0521 137.865 59.2188 138.906 59.2188C139.635 59.2188 140.312 59.1354 140.938 58.9688C141.562 58.8021 142.146 58.5729 142.688 58.2812C143.229 57.9896 143.75 57.6562 144.25 57.2812C144.75 56.8854 145.25 56.4688 145.75 56.0312L146.531 56.7812C146.052 57.4271 145.438 58.1354 144.688 58.9062C143.938 59.6771 143.031 60.4062 141.969 61.0938C140.906 61.7604 139.667 62.3229 138.25 62.7812C136.833 63.2188 135.219 63.4375 133.406 63.4375C131.594 63.4375 129.823 63.1146 128.094 62.4688C126.385 61.8021 124.865 60.8125 123.531 59.5C122.198 58.1875 121.125 56.5521 120.312 54.5938C119.521 52.6354 119.125 50.3438 119.125 47.7188C119.125 45.8229 119.365 44.0833 119.844 42.5C120.323 40.9167 120.969 39.4896 121.781 38.2188C122.615 36.9479 123.573 35.8333 124.656 34.875C125.76 33.9167 126.917 33.125 128.125 32.5C129.333 31.8542 130.562 31.375 131.812 31.0625C133.083 30.7292 134.302 30.5625 135.469 30.5625C137.01 30.5625 138.354 30.7292 139.5 31.0625C140.646 31.3958 141.594 31.8438 142.344 32.4062C143.115 32.9688 143.688 33.625 144.062 34.375C144.438 35.1042 144.625 35.875 144.625 36.6875C144.625 37.6667 144.344 38.5521 143.781 39.3438C143.219 40.1146 142.469 40.7917 141.531 41.375L129.188 48.6562ZM135.469 42.3125C135.74 42.1458 135.958 41.9896 136.125 41.8438C136.312 41.6771 136.458 41.4896 136.562 41.2812C136.667 41.0521 136.74 40.7812 136.781 40.4688C136.844 40.1354 136.875 39.7292 136.875 39.25C136.875 38.7292 136.812 38.1562 136.688 37.5312C136.583 36.8854 136.396 36.2812 136.125 35.7188C135.854 35.1562 135.51 34.6875 135.094 34.3125C134.677 33.9375 134.177 33.75 133.594 33.75C132.844 33.75 132.198 33.9792 131.656 34.4375C131.135 34.875 130.698 35.4479 130.344 36.1562C130.01 36.8646 129.74 37.6771 129.531 38.5938C129.344 39.4896 129.198 40.3958 129.094 41.3125C128.99 42.2292 128.927 43.1146 128.906 43.9688C128.885 44.8021 128.875 45.5104 128.875 46.0938L135.469 42.3125ZM160.719 37.1562C161.51 35.9479 162.354 34.8542 163.25 33.875C163.625 33.4583 164.031 33.0521 164.469 32.6562C164.906 32.2604 165.354 31.9062 165.812 31.5938C166.292 31.2812 166.781 31.0312 167.281 30.8438C167.781 30.6562 168.281 30.5625 168.781 30.5625C169.844 30.5625 170.677 30.8854 171.281 31.5312C171.885 32.1562 172.188 33.0417 172.188 34.1875C172.188 34.8958 172.125 35.5833 172 36.25C171.896 36.8958 171.677 37.6875 171.344 38.625H170.469C170.344 37.9792 170.052 37.4479 169.594 37.0312C169.135 36.5938 168.469 36.375 167.594 36.375C166.948 36.375 166.312 36.5 165.688 36.75C165.062 36.9792 164.448 37.2708 163.844 37.625C163.26 37.9792 162.698 38.3646 162.156 38.7812C161.635 39.1979 161.156 39.5938 160.719 39.9688V60.25C160.719 60.5208 160.677 60.8438 160.594 61.2188C160.51 61.5938 160.302 61.9479 159.969 62.2812C159.656 62.6146 159.177 62.8958 158.531 63.125C157.906 63.375 157.042 63.5 155.938 63.5C154.833 63.5 153.958 63.3646 153.312 63.0938C152.688 62.8438 152.208 62.5417 151.875 62.1875C151.542 61.8333 151.333 61.4688 151.25 61.0938C151.167 60.7188 151.125 60.4167 151.125 60.1875V36.0625C151.125 35.4583 150.979 34.9375 150.688 34.5C150.417 34.0417 149.948 33.8125 149.281 33.8125C148.927 33.8125 148.625 33.875 148.375 34C148.125 34.125 147.854 34.3021 147.562 34.5312L146.906 33.75C147.385 33.3542 147.917 32.9688 148.5 32.5938C149.104 32.1979 149.75 31.8542 150.438 31.5625C151.125 31.2708 151.865 31.0312 152.656 30.8438C153.448 30.6562 154.281 30.5625 155.156 30.5625C156.052 30.5625 156.812 30.6875 157.438 30.9375C158.083 31.1667 158.604 31.4792 159 31.875C159.417 32.25 159.74 32.6771 159.969 33.1562C160.198 33.6354 160.365 34.125 160.469 34.625C160.594 35.1042 160.667 35.5729 160.688 36.0312C160.708 36.4688 160.719 36.8438 160.719 37.1562ZM193.781 47.4375C193.781 45.625 193.688 43.9271 193.5 42.3438C193.312 40.7396 193.01 39.3438 192.594 38.1562C192.177 36.9479 191.646 36 191 35.3125C190.354 34.6042 189.573 34.25 188.656 34.25C187.948 34.25 187.344 34.4271 186.844 34.7812C186.365 35.1146 185.969 35.5 185.656 35.9375C185.344 36.375 185.115 36.8125 184.969 37.25C184.823 37.6667 184.75 37.9479 184.75 38.0938V47.4375C184.75 51.9792 185.125 55.2812 185.875 57.3438C186.646 59.4062 187.771 60.4375 189.25 60.4375C190.812 60.4375 191.958 59.3854 192.688 57.2812C193.417 55.1771 193.781 51.8958 193.781 47.4375ZM175.156 19.875C175.156 19.2708 175.01 18.75 174.719 18.3125C174.448 17.8542 173.979 17.625 173.312 17.625C172.958 17.625 172.646 17.6875 172.375 17.8125C172.125 17.9167 171.854 18.0833 171.562 18.3125L170.938 17.5625C171.417 17.1667 171.948 16.7812 172.531 16.4062C173.135 16.0104 173.781 15.6667 174.469 15.375C175.156 15.0833 175.896 14.8438 176.688 14.6562C177.479 14.4688 178.312 14.375 179.188 14.375C180.396 14.375 181.365 14.5625 182.094 14.9375C182.844 15.2917 183.406 15.7396 183.781 16.2812C184.177 16.8021 184.438 17.375 184.562 18C184.688 18.6042 184.75 19.1667 184.75 19.6875V33.625C185 33.3958 185.323 33.1146 185.719 32.7812C186.115 32.4271 186.615 32.0833 187.219 31.75C187.823 31.4167 188.542 31.1354 189.375 30.9062C190.229 30.6771 191.229 30.5625 192.375 30.5625C193.708 30.5625 195.042 30.875 196.375 31.5C197.708 32.1042 198.906 33.0625 199.969 34.375C201.031 35.6875 201.896 37.375 202.562 39.4375C203.229 41.5 203.562 43.9792 203.562 46.875C203.562 49.1458 203.25 51.2917 202.625 53.3125C202.021 55.3333 201.115 57.1042 199.906 58.625C198.698 60.125 197.188 61.3125 195.375 62.1875C193.562 63.0625 191.458 63.5 189.062 63.5C186.458 63.5 184.26 63.0833 182.469 62.25C180.698 61.3958 179.271 60.2604 178.188 58.8438C177.104 57.4062 176.323 55.7396 175.844 53.8438C175.385 51.9479 175.156 49.9479 175.156 47.8438V19.875ZM236.312 60.25C236.312 60.5208 236.271 60.8438 236.188 61.2188C236.104 61.5938 235.896 61.9479 235.562 62.2812C235.25 62.6146 234.771 62.8958 234.125 63.125C233.479 63.375 232.604 63.5 231.5 63.5C230.396 63.5 229.521 63.3646 228.875 63.0938C228.25 62.8438 227.771 62.5417 227.438 62.1875C227.125 61.8333 226.927 61.4688 226.844 61.0938C226.76 60.7188 226.719 60.4167 226.719 60.1875V38.0938C226.719 37.8021 226.677 37.5104 226.594 37.2188C226.51 36.9062 226.385 36.625 226.219 36.375C226.052 36.125 225.844 35.9271 225.594 35.7812C225.344 35.6146 225.052 35.5312 224.719 35.5312C224.156 35.5312 223.604 35.6979 223.062 36.0312C222.521 36.3438 222.01 36.7083 221.531 37.125C221.073 37.5417 220.667 37.9583 220.312 38.375C219.979 38.7917 219.74 39.1042 219.594 39.3125V60.25C219.594 60.5208 219.552 60.8438 219.469 61.2188C219.385 61.5938 219.177 61.9479 218.844 62.2812C218.531 62.6146 218.052 62.8958 217.406 63.125C216.781 63.375 215.917 63.5 214.812 63.5C213.708 63.5 212.833 63.3646 212.188 63.0938C211.562 62.8438 211.083 62.5417 210.75 62.1875C210.417 61.8333 210.208 61.4688 210.125 61.0938C210.042 60.7188 210 60.4167 210 60.1875V36.0625C210 35.4583 209.854 34.9375 209.562 34.5C209.292 34.0417 208.823 33.8125 208.156 33.8125C207.802 33.8125 207.5 33.875 207.25 34C207 34.125 206.729 34.3021 206.438 34.5312L205.781 33.75C206.26 33.3542 206.792 32.9688 207.375 32.5938C207.979 32.1979 208.625 31.8542 209.312 31.5625C210 31.2708 210.74 31.0312 211.531 30.8438C212.323 30.6562 213.156 30.5625 214.031 30.5625C215.385 30.5625 216.438 30.7917 217.188 31.25C217.938 31.6875 218.49 32.2188 218.844 32.8438C219.198 33.4688 219.406 34.125 219.469 34.8125C219.552 35.4792 219.594 36.0417 219.594 36.5C220.573 35.3958 221.625 34.4062 222.75 33.5312C223.208 33.1562 223.708 32.7917 224.25 32.4375C224.812 32.0833 225.385 31.7708 225.969 31.5C226.552 31.2083 227.156 30.9792 227.781 30.8125C228.406 30.6458 229.031 30.5625 229.656 30.5625C230.865 30.5625 231.896 30.7812 232.75 31.2188C233.604 31.6562 234.292 32.1875 234.812 32.8125C235.333 33.4167 235.708 34.0625 235.938 34.75C236.188 35.4167 236.312 36 236.312 36.5C237.312 35.3958 238.365 34.4062 239.469 33.5312C239.927 33.1562 240.427 32.7917 240.969 32.4375C241.51 32.0833 242.073 31.7708 242.656 31.5C243.26 31.2083 243.865 30.9792 244.469 30.8125C245.094 30.6458 245.719 30.5625 246.344 30.5625C247.552 30.5625 248.583 30.7917 249.438 31.25C250.292 31.6875 250.979 32.2708 251.5 33C252.021 33.7292 252.396 34.5521 252.625 35.4688C252.875 36.3854 253 37.3021 253 38.2188V57.5625C253 57.75 253.01 57.9583 253.031 58.1875C253.052 58.3958 253.104 58.6042 253.188 58.8125C253.271 59 253.396 59.1562 253.562 59.2812C253.75 59.4062 253.99 59.4688 254.281 59.4688C254.677 59.4688 255.031 59.3333 255.344 59.0625C255.656 58.7708 255.948 58.4792 256.219 58.1875L256.969 58.8438C256.677 59.2812 256.292 59.7708 255.812 60.3125C255.333 60.8333 254.76 61.3333 254.094 61.8125C253.448 62.2917 252.688 62.6875 251.812 63C250.958 63.3333 249.99 63.5 248.906 63.5C247.99 63.5 247.188 63.375 246.5 63.125C245.833 62.8958 245.26 62.5833 244.781 62.1875C244.323 61.7708 243.979 61.2917 243.75 60.75C243.521 60.1875 243.406 59.5938 243.406 58.9688V38.0938C243.406 37.8021 243.365 37.5104 243.281 37.2188C243.198 36.9062 243.073 36.625 242.906 36.375C242.76 36.125 242.562 35.9271 242.312 35.7812C242.062 35.6146 241.771 35.5312 241.438 35.5312C240.875 35.5312 240.312 35.6979 239.75 36.0312C239.208 36.3438 238.698 36.7083 238.219 37.125C237.76 37.5417 237.365 37.9583 237.031 38.375C236.698 38.7917 236.458 39.1042 236.312 39.3125V60.25ZM269.312 48.6562C269.312 49.3229 269.406 50.0521 269.594 50.8438C269.802 51.6146 270.094 52.3958 270.469 53.1875C270.844 53.9792 271.302 54.7396 271.844 55.4688C272.406 56.1771 273.042 56.8125 273.75 57.375C274.479 57.9375 275.281 58.3854 276.156 58.7188C277.031 59.0521 277.99 59.2188 279.031 59.2188C279.76 59.2188 280.438 59.1354 281.062 58.9688C281.688 58.8021 282.271 58.5729 282.812 58.2812C283.354 57.9896 283.875 57.6562 284.375 57.2812C284.875 56.8854 285.375 56.4688 285.875 56.0312L286.656 56.7812C286.177 57.4271 285.562 58.1354 284.812 58.9062C284.062 59.6771 283.156 60.4062 282.094 61.0938C281.031 61.7604 279.792 62.3229 278.375 62.7812C276.958 63.2188 275.344 63.4375 273.531 63.4375C271.719 63.4375 269.948 63.1146 268.219 62.4688C266.51 61.8021 264.99 60.8125 263.656 59.5C262.323 58.1875 261.25 56.5521 260.438 54.5938C259.646 52.6354 259.25 50.3438 259.25 47.7188C259.25 45.8229 259.49 44.0833 259.969 42.5C260.448 40.9167 261.094 39.4896 261.906 38.2188C262.74 36.9479 263.698 35.8333 264.781 34.875C265.885 33.9167 267.042 33.125 268.25 32.5C269.458 31.8542 270.688 31.375 271.938 31.0625C273.208 30.7292 274.427 30.5625 275.594 30.5625C277.135 30.5625 278.479 30.7292 279.625 31.0625C280.771 31.3958 281.719 31.8438 282.469 32.4062C283.24 32.9688 283.812 33.625 284.188 34.375C284.562 35.1042 284.75 35.875 284.75 36.6875C284.75 37.6667 284.469 38.5521 283.906 39.3438C283.344 40.1146 282.594 40.7917 281.656 41.375L269.312 48.6562ZM275.594 42.3125C275.865 42.1458 276.083 41.9896 276.25 41.8438C276.438 41.6771 276.583 41.4896 276.688 41.2812C276.792 41.0521 276.865 40.7812 276.906 40.4688C276.969 40.1354 277 39.7292 277 39.25C277 38.7292 276.938 38.1562 276.812 37.5312C276.708 36.8854 276.521 36.2812 276.25 35.7188C275.979 35.1562 275.635 34.6875 275.219 34.3125C274.802 33.9375 274.302 33.75 273.719 33.75C272.969 33.75 272.323 33.9792 271.781 34.4375C271.26 34.875 270.823 35.4479 270.469 36.1562C270.135 36.8646 269.865 37.6771 269.656 38.5938C269.469 39.4896 269.323 40.3958 269.219 41.3125C269.115 42.2292 269.052 43.1146 269.031 43.9688C269.01 44.8021 269 45.5104 269 46.0938L275.594 42.3125ZM308.219 46.0312C308.219 45.8021 308.219 45.3438 308.219 44.6562C308.219 43.9479 308.198 43.1458 308.156 42.25C308.115 41.3333 308.042 40.3646 307.938 39.3438C307.833 38.3229 307.667 37.375 307.438 36.5C306.938 35.8542 306.375 35.2812 305.75 34.7812C305.146 34.2604 304.365 34 303.406 34C301.781 34 300.583 35.0625 299.812 37.1875C299.062 39.3125 298.688 42.6042 298.688 47.0625C298.688 49.0208 298.771 50.8125 298.938 52.4375C299.125 54.0625 299.396 55.4583 299.75 56.625C300.125 57.7917 300.594 58.6979 301.156 59.3438C301.74 59.9896 302.427 60.3125 303.219 60.3125C306.552 60.3125 308.219 55.5521 308.219 46.0312ZM307.844 32.2812C307.448 30.1979 306.896 28.2604 306.188 26.4688C305.479 24.6562 304.625 23.0938 303.625 21.7812C302.646 20.4688 301.521 19.4375 300.25 18.6875C299 17.9375 297.646 17.5625 296.188 17.5625C295.354 17.5625 294.594 17.6667 293.906 17.875C293.24 18.0833 292.656 18.3333 292.156 18.625C291.656 18.8958 291.24 19.1667 290.906 19.4375C290.594 19.6875 290.365 19.875 290.219 20L289.406 18.9062C289.906 18.2604 290.51 17.6562 291.219 17.0938C291.948 16.5312 292.74 16.0521 293.594 15.6562C294.448 15.2604 295.344 14.9479 296.281 14.7188C297.24 14.4896 298.188 14.375 299.125 14.375C302.208 14.375 304.917 15.0521 307.25 16.4062C309.583 17.7396 311.531 19.6354 313.094 22.0938C314.656 24.5521 315.833 27.5208 316.625 31C317.417 34.4792 317.812 38.3438 317.812 42.5938C317.812 46.0312 317.458 49.0521 316.75 51.6562C316.062 54.2604 315.073 56.4479 313.781 58.2188C312.49 59.9688 310.917 61.2917 309.062 62.1875C307.229 63.0625 305.156 63.5 302.844 63.5C301.24 63.5 299.604 63.2188 297.938 62.6562C296.292 62.0729 294.792 61.1354 293.438 59.8438C292.104 58.5521 291.01 56.8646 290.156 54.7812C289.302 52.6771 288.875 50.1042 288.875 47.0625C288.875 44.4375 289.24 42.1042 289.969 40.0625C290.719 38.0208 291.719 36.3021 292.969 34.9062C294.219 33.4896 295.667 32.4167 297.312 31.6875C298.958 30.9375 300.698 30.5625 302.531 30.5625C303.24 30.5625 303.875 30.625 304.438 30.75C305 30.8542 305.49 30.9896 305.906 31.1562C306.323 31.3229 306.688 31.5104 307 31.7188C307.312 31.9062 307.594 32.0938 307.844 32.2812Z"
    fill="#6B705C"
  />
</svg>
